<svg width="34" height="16" viewBox="0 0 34 16" fill="none" xmlns="http://www.w3.org/2000/svg">
<path d="M24.2295 0.324461C24.1156 0.426431 24.0252 0.547749 23.9635 0.681417C23.9018 0.815084 23.8701 0.958454 23.8701 1.10326C23.8701 1.24806 23.9018 1.39143 23.9635 1.5251C24.0252 1.65877 24.1156 1.78008 24.2295 1.88206L29.8191 6.92779H1.21512C0.892851 6.92779 0.58378 7.04335 0.355901 7.24906C0.128021 7.45477 0 7.73377 0 8.02468C0 8.3156 0.128021 8.5946 0.355901 8.80031C0.58378 9.00601 0.892851 9.12158 1.21512 9.12158H29.7948L24.2295 14.1344C24.0032 14.3399 23.8762 14.6179 23.8762 14.9077C23.8762 15.1975 24.0032 15.4755 24.2295 15.681C24.4572 15.8853 24.7652 16 25.0862 16C25.4072 16 25.7152 15.8853 25.9428 15.681L33.671 8.70476C33.775 8.61467 33.8578 8.50653 33.9143 8.38683C33.9709 8.26713 34 8.13835 34 8.00823C34 7.8781 33.9709 7.74932 33.9143 7.62963C33.8578 7.50993 33.775 7.40179 33.671 7.3117L25.955 0.324461C25.842 0.22165 25.7076 0.140047 25.5596 0.0843593C25.4115 0.0286712 25.2527 0 25.0922 0C24.9318 0 24.773 0.0286712 24.6249 0.0843593C24.4769 0.140047 24.3425 0.22165 24.2295 0.324461Z" fill="black"/>
</svg>
