<svg width="17" height="42" viewBox="0 0 17 42" fill="none" xmlns="http://www.w3.org/2000/svg">
<path d="M16.1755 31.729C16.0736 31.6151 15.9523 31.5247 15.8186 31.463C15.6849 31.4013 15.5415 31.3696 15.3967 31.3696C15.2519 31.3696 15.1086 31.4013 14.9749 31.463C14.8412 31.5247 14.7199 31.6151 14.6179 31.729L9.57221 37.3186L9.57221 8.71463C9.57221 8.39236 9.45665 8.08329 9.25094 7.85541C9.04523 7.62753 8.76623 7.49951 8.47532 7.49951C8.1844 7.49951 7.9054 7.62753 7.69969 7.85541C7.49399 8.08329 7.37842 8.39236 7.37842 8.71463L7.37842 37.2943L2.3656 31.729C2.16008 31.5027 1.88207 31.3757 1.59228 31.3757C1.3025 31.3757 1.02449 31.5027 0.818972 31.729C0.614673 31.9567 0.500002 32.2647 0.500002 32.5857C0.500002 32.9067 0.614673 33.2147 0.818972 33.4423L7.79524 41.1705C7.88533 41.2745 7.99347 41.3573 8.11317 41.4138C8.23287 41.4704 8.36165 41.4995 8.49177 41.4995C8.6219 41.4995 8.75068 41.4704 8.87037 41.4138C8.99007 41.3573 9.09821 41.2745 9.1883 41.1705L16.1755 33.4545C16.2784 33.3415 16.36 33.2071 16.4156 33.0591C16.4713 32.911 16.5 32.7522 16.5 32.5918C16.5 32.4313 16.4713 32.2725 16.4156 32.1244C16.36 31.9764 16.2784 31.842 16.1755 31.729Z" fill="black"/>
<path d="M14.88 0.499512L16.5 2.1818L8.5 10.4995L0.500002 2.1818L2.12 0.499512L8.5 7.12972L14.88 0.499512Z" fill="black"/>
</svg>
