<svg width="17" height="42" viewBox="0 0 17 42" fill="none" xmlns="http://www.w3.org/2000/svg">
<path d="M16.1755 31.4417C16.0736 31.3244 15.9523 31.2314 15.8186 31.1678C15.6849 31.1043 15.5415 31.0716 15.3967 31.0716C15.2519 31.0716 15.1086 31.1043 14.9749 31.1678C14.8412 31.2314 14.7199 31.3244 14.6179 31.4417L9.57221 37.1956L9.57221 7.75037C9.57221 7.41862 9.45665 7.10046 9.25094 6.86588C9.04523 6.6313 8.76623 6.49951 8.47532 6.49951C8.1844 6.49951 7.9054 6.6313 7.69969 6.86588C7.49399 7.10046 7.37842 7.41862 7.37842 7.75037L7.37842 37.1706L2.3656 31.4417C2.16008 31.2087 1.88207 31.0779 1.59228 31.0779C1.3025 31.0779 1.02449 31.2087 0.818972 31.4417C0.614673 31.676 0.500002 31.993 0.500002 32.3235C0.500002 32.654 0.614673 32.971 0.818972 33.2054L7.79524 41.1608C7.88533 41.2679 7.99347 41.3531 8.11317 41.4113C8.23287 41.4695 8.36165 41.4995 8.49177 41.4995C8.6219 41.4995 8.75068 41.4695 8.87037 41.4113C8.99007 41.3531 9.09821 41.2679 9.1883 41.1608L16.1755 33.2179C16.2784 33.1016 16.36 32.9632 16.4156 32.8108C16.4713 32.6584 16.5 32.4949 16.5 32.3298C16.5 32.1646 16.4713 32.0011 16.4156 31.8487C16.36 31.6963 16.2784 31.5579 16.1755 31.4417Z" fill="black"/>
<path d="M14.88 0.499512L16.5 2.01357L8.5 9.49951L0.500002 2.01357L2.12 0.499512L8.5 6.4667L14.88 0.499512Z" fill="black"/>
<path d="M14.88 5.49951L16.5 7.1818L8.5 15.4995L0.500002 7.1818L2.12 5.49951L8.5 12.1297L14.88 5.49951Z" fill="black"/>
</svg>
