<svg width="26" height="26" viewBox="0 0 26 26" fill="none" xmlns="http://www.w3.org/2000/svg">
<path d="M13.315 23.5377C13.3234 23.3851 13.3015 23.2354 13.2506 23.0972C13.1997 22.9591 13.1208 22.8352 13.0184 22.7328C12.916 22.6305 12.7922 22.5515 12.6541 22.5006C12.5159 22.4497 12.3662 22.4279 12.2136 22.4363L4.6933 22.8209L24.9193 2.59481C25.1472 2.36693 25.2841 2.06667 25.2997 1.76008C25.3154 1.45349 25.2086 1.16568 25.0029 0.959969C24.7972 0.754261 24.5094 0.647503 24.2028 0.663181C23.8962 0.678858 23.596 0.815686 23.3681 1.04357L3.15924 21.2524L3.54986 13.7726C3.56457 13.4672 3.45781 13.1808 3.2529 12.9759C3.04799 12.771 2.76159 12.6643 2.45623 12.679C2.15079 12.6955 1.85193 12.8322 1.62494 13.0592C1.39794 13.2862 1.26126 13.585 1.24473 13.8905L0.713061 24.2881C0.703212 24.4253 0.721157 24.5603 0.765817 24.6849C0.810477 24.8096 0.88093 24.9212 0.972942 25.0132C1.06495 25.1052 1.17662 25.1757 1.30124 25.2204C1.42586 25.265 1.56085 25.283 1.6981 25.2731L12.0949 24.7578C12.2474 24.7506 12.4002 24.7133 12.5443 24.648C12.6883 24.5826 12.8209 24.4906 12.9344 24.3772C13.0478 24.2637 13.1398 24.1312 13.2051 23.9871C13.2705 23.843 13.3078 23.6903 13.315 23.5377Z" fill="black"/>
</svg>
