<svg width="41" height="42" viewBox="0 0 41 42" fill="none" xmlns="http://www.w3.org/2000/svg">
<path d="M18.3396 34.0138C18.3481 33.8611 18.3262 33.7114 18.2753 33.5733C18.2244 33.4352 18.1455 33.3113 18.0431 33.2089C17.9407 33.1065 17.8169 33.0276 17.6787 32.9767C17.5406 32.9258 17.3909 32.904 17.2382 32.9124L9.71796 33.2969L29.944 13.0709C30.1719 12.843 30.3087 12.5427 30.3244 12.2362C30.3401 11.9296 30.2333 11.6418 30.0276 11.436C29.8219 11.2303 29.5341 11.1236 29.2275 11.1393C28.9209 11.1549 28.6206 11.2918 28.3928 11.5196L8.18389 31.7285L8.57452 24.2487C8.58923 23.9433 8.48247 23.6569 8.27756 23.452C8.07265 23.2471 7.78624 23.1403 7.48089 23.155C7.17545 23.1716 6.87659 23.3082 6.6496 23.5352C6.4226 23.7622 6.28592 24.0611 6.26939 24.3665L5.73772 34.7641C5.72787 34.9014 5.74582 35.0364 5.79048 35.161C5.83514 35.2856 5.90559 35.3973 5.9976 35.4893C6.08961 35.5813 6.20128 35.6518 6.3259 35.6964C6.45052 35.7411 6.58551 35.759 6.72276 35.7492L17.1195 35.2339C17.2721 35.2267 17.4248 35.1894 17.5689 35.124C17.713 35.0587 17.8456 34.9667 17.959 34.8532C18.0724 34.7398 18.1645 34.6072 18.2298 34.4632C18.2951 34.3191 18.3324 34.1663 18.3396 34.0138Z" fill="black"/>
<path d="M39.5061 11.0151L39.4621 13.3502L27.9237 13.5749L28.1483 2.0365L30.4834 1.99245L30.3065 11.1921L39.5061 11.0151Z" fill="black"/>
</svg>
