<svg width="41" height="42" viewBox="0 0 41 42" fill="none" xmlns="http://www.w3.org/2000/svg">
<path d="M18.5432 33.8106C18.554 33.6556 18.5341 33.5041 18.4844 33.3646C18.4348 33.2252 18.3566 33.1007 18.2542 32.9983C18.1518 32.8959 18.0273 32.8177 17.8879 32.7681C17.7484 32.7184 17.5969 32.6985 17.4419 32.7093L9.80532 33.2101L30.6262 12.3891C30.8608 12.1545 31.0041 11.8479 31.0245 11.5365C31.0449 11.2252 30.9408 10.9347 30.7351 10.729C30.5294 10.5233 30.2389 10.4192 29.9276 10.4396C29.6163 10.46 29.3096 10.6033 29.075 10.8379L8.27176 31.6411L8.77813 24.0455C8.79755 23.7355 8.69343 23.4464 8.48852 23.2415C8.28361 23.0366 7.99456 22.9325 7.6845 22.9519C7.37432 22.9732 7.06906 23.1163 6.83539 23.3499C6.60172 23.5836 6.45863 23.8889 6.43737 24.199L5.74497 34.7574C5.73296 34.8968 5.74919 35.0335 5.79267 35.1593C5.83615 35.2851 5.906 35.3974 5.99801 35.4894C6.09003 35.5814 6.2023 35.6512 6.32809 35.6947C6.45389 35.7382 6.5906 35.7544 6.73002 35.7424L17.2873 35.0666C17.4422 35.0571 17.5977 35.017 17.7449 34.9486C17.892 34.8802 18.0279 34.7848 18.1447 34.6681C18.2614 34.5513 18.3568 34.4154 18.4252 34.2683C18.4936 34.1211 18.5337 33.9656 18.5432 33.8106Z" fill="black"/>
<path d="M39.5066 11.0151L39.5815 13.2312L28.6313 12.8678L28.2678 1.91754L30.4839 1.99245L30.7758 10.7232L39.5066 11.0151Z" fill="black"/>
<path d="M35.9709 14.5508L35.9269 16.8858L24.3885 17.1105L24.6132 5.57214L26.9483 5.52809L26.7713 14.7277L35.9709 14.5508Z" fill="black"/>
</svg>
