<svg width="41" height="42" viewBox="0 0 41 42" fill="none" xmlns="http://www.w3.org/2000/svg">
<path d="M18.3401 34.0138C18.3485 33.8611 18.3267 33.7114 18.2758 33.5733C18.2249 33.4352 18.146 33.3113 18.0436 33.2089C17.9412 33.1065 17.8173 33.0276 17.6792 32.9767C17.5411 32.9258 17.3914 32.904 17.2387 32.9124L9.71845 33.2969L29.9445 13.0709C30.1724 12.843 30.3092 12.5427 30.3249 12.2362C30.3406 11.9296 30.2338 11.6418 30.0281 11.436C29.8224 11.2303 29.5346 11.1236 29.228 11.1393C28.9214 11.1549 28.6211 11.2918 28.3932 11.5196L8.18438 31.7285L8.57501 24.2487C8.58972 23.9433 8.48296 23.6569 8.27805 23.452C8.07314 23.2471 7.78673 23.1403 7.48138 23.155C7.17593 23.1716 6.87708 23.3082 6.65008 23.5352C6.42309 23.7622 6.2864 24.0611 6.26988 24.3665L5.73821 34.7641C5.72836 34.9014 5.7463 35.0364 5.79096 35.161C5.83562 35.2856 5.90608 35.3973 5.99809 35.4893C6.0901 35.5813 6.20177 35.6518 6.32639 35.6964C6.45101 35.7411 6.586 35.759 6.72325 35.7492L17.12 35.2339C17.2726 35.2267 17.4253 35.1894 17.5694 35.124C17.7135 35.0587 17.8461 34.9667 17.9595 34.8532C18.0729 34.7398 18.165 34.6072 18.2303 34.4632C18.2956 34.3191 18.3329 34.1663 18.3401 34.0138Z" fill="black"/>
<path d="M39.5066 11.0151L39.4625 13.3502L27.9242 13.5749L28.1488 2.0365L30.4839 1.99245L30.307 11.1921L39.5066 11.0151Z" fill="black"/>
<path d="M35.2639 15.2578L35.3388 17.4739L24.3886 17.1104L24.0251 6.16022L26.2412 6.23512L26.5331 14.9659L35.2639 15.2578Z" fill="black"/>
<path d="M31.7285 18.7935L31.6845 21.1285L20.1461 21.3532L20.3708 9.81482L22.7058 9.77077L22.5289 18.9704L31.7285 18.7935Z" fill="black"/>
</svg>
