<svg width="34" height="16" viewBox="0 0 34 16" fill="none" xmlns="http://www.w3.org/2000/svg">
<path d="M9.77 15.6736C9.88389 15.5716 9.97429 15.4503 10.036 15.3166C10.0977 15.183 10.1294 15.0396 10.1294 14.8948C10.1294 14.75 10.0977 14.6066 10.036 14.4729C9.97429 14.3393 9.88389 14.218 9.77 14.116L4.18045 9.07026L32.7844 9.07026C33.1067 9.07026 33.4157 8.9547 33.6436 8.74899C33.8715 8.54328 33.9995 8.26428 33.9995 7.97336C33.9995 7.68245 33.8715 7.40345 33.6436 7.19774C33.4157 6.99203 33.1067 6.87647 32.7844 6.87647L4.20475 6.87647L9.77 1.86364C9.99632 1.65812 10.1234 1.38011 10.1234 1.09033C10.1234 0.800545 9.99632 0.522534 9.77 0.317017C9.54233 0.112718 9.23436 -0.00195304 8.91334 -0.00195304C8.59232 -0.00195304 8.28435 0.112718 8.05668 0.317017L0.328513 7.29329C0.224497 7.38338 0.141733 7.49152 0.0851939 7.61122C0.0286551 7.73091 -0.000489924 7.85969 -0.000489924 7.98982C-0.000489924 8.11994 0.0286551 8.24872 0.0851939 8.36842C0.141733 8.48812 0.224497 8.59626 0.328513 8.68635L8.04453 15.6736C8.15749 15.7764 8.29189 15.858 8.43996 15.9137C8.58803 15.9694 8.74686 15.998 8.90727 15.998C9.06768 15.998 9.2265 15.9694 9.37457 15.9137C9.52265 15.858 9.65704 15.7764 9.77 15.6736Z" fill="black"/>
</svg>
