<svg width="41" height="16" viewBox="0 0 41 16" fill="none" xmlns="http://www.w3.org/2000/svg">
<path d="M9.76951 15.6751C9.88341 15.5731 9.9738 15.4518 10.0355 15.3181C10.0972 15.1844 10.1289 15.0411 10.1289 14.8963C10.1289 14.7515 10.0972 14.6081 10.0355 14.4744C9.9738 14.3407 9.88341 14.2194 9.76951 14.1175L4.17996 9.07173L32.7839 9.07173C33.1062 9.07173 33.4152 8.95616 33.6431 8.75045C33.871 8.54474 33.999 8.26574 33.999 7.97483C33.999 7.68391 33.871 7.40491 33.6431 7.19921C33.4152 6.9935 33.1062 6.87793 32.7839 6.87793L4.20426 6.87793L9.76951 1.86511C9.99583 1.65959 10.1229 1.38158 10.1229 1.09179C10.1229 0.80201 9.99583 0.523999 9.76951 0.318481C9.54185 0.114183 9.23387 -0.000488194 8.91285 -0.000488194C8.59184 -0.000488194 8.28386 0.114183 8.05619 0.318481L0.328025 7.29475C0.224008 7.38484 0.141244 7.49298 0.0847056 7.61268C0.0281668 7.73238 -0.000978206 7.86116 -0.000978206 7.99128C-0.000978206 8.12141 0.0281668 8.25019 0.0847056 8.36988C0.141244 8.48958 0.224008 8.59772 0.328025 8.68781L8.04404 15.6751C8.157 15.7779 8.2914 15.8595 8.43947 15.9152C8.58755 15.9708 8.74637 15.9995 8.90678 15.9995C9.06719 15.9995 9.22601 15.9708 9.37408 15.9152C9.52216 15.8595 9.65655 15.7779 9.76951 15.6751Z" fill="black"/>
<path d="M40.999 14.3795L39.3167 15.9995L30.999 7.99951L39.3167 -0.00048852L40.999 1.61951L34.3688 7.99951L40.999 14.3795Z" fill="black"/>
</svg>
