<svg width="41" height="16" viewBox="0 0 41 16" fill="none" xmlns="http://www.w3.org/2000/svg">
<path d="M10.0574 15.6751C10.1746 15.5731 10.2677 15.4518 10.3312 15.3181C10.3947 15.1844 10.4274 15.0411 10.4274 14.8963C10.4274 14.7515 10.3947 14.6081 10.3312 14.4744C10.2677 14.3407 10.1746 14.2194 10.0574 14.1175L4.30342 9.07173L33.7487 9.07173C34.0804 9.07173 34.3986 8.95616 34.6331 8.75045C34.8677 8.54474 34.9995 8.26574 34.9995 7.97483C34.9995 7.68391 34.8677 7.40491 34.6331 7.19921C34.3986 6.9935 34.0804 6.87793 33.7487 6.87793L4.32843 6.87793L10.0574 1.86511C10.2903 1.65959 10.4211 1.38158 10.4211 1.09179C10.4211 0.80201 10.2903 0.523999 10.0574 0.318481C9.82301 0.114183 9.50597 -0.000488194 9.17551 -0.000488194C8.84506 -0.000488194 8.52802 0.114183 8.29366 0.318481L0.33819 7.29475C0.231115 7.38484 0.145916 7.49298 0.0877146 7.61268C0.0295129 7.73238 -0.000489384 7.86116 -0.000489384 7.99128C-0.000489384 8.12141 0.0295129 8.25019 0.0877146 8.36988C0.145916 8.48958 0.231115 8.59772 0.33819 8.68781L8.28115 15.6751C8.39743 15.7779 8.53578 15.8595 8.68821 15.9152C8.84064 15.9708 9.00413 15.9995 9.16926 15.9995C9.33439 15.9995 9.49788 15.9708 9.65031 15.9152C9.80274 15.8595 9.94109 15.7779 10.0574 15.6751Z" fill="black"/>
<path d="M40.9995 14.3795L39.4854 15.9995L31.9995 7.99951L39.4854 -0.00048852L40.9995 1.61951L35.0323 7.99951L40.9995 14.3795Z" fill="black"/>
<path d="M35.9995 14.3795L34.3172 15.9995L25.9995 7.99951L34.3172 -0.00048852L35.9995 1.61951L29.3693 7.99951L35.9995 14.3795Z" fill="black"/>
</svg>
