<svg width="41" height="16" viewBox="0 0 41 16" fill="none" xmlns="http://www.w3.org/2000/svg">
<path d="M9.77 15.6751C9.88389 15.5731 9.97429 15.4518 10.036 15.3181C10.0977 15.1844 10.1294 15.0411 10.1294 14.8963C10.1294 14.7515 10.0977 14.6081 10.036 14.4744C9.97429 14.3407 9.88389 14.2194 9.77 14.1175L4.18045 9.07173L32.7844 9.07173C33.1067 9.07173 33.4157 8.95616 33.6436 8.75045C33.8715 8.54474 33.9995 8.26574 33.9995 7.97483C33.9995 7.68391 33.8715 7.40491 33.6436 7.19921C33.4157 6.9935 33.1067 6.87793 32.7844 6.87793L4.20475 6.87793L9.77 1.86511C9.99632 1.65959 10.1234 1.38158 10.1234 1.09179C10.1234 0.80201 9.99632 0.523999 9.77 0.318481C9.54233 0.114183 9.23436 -0.000488194 8.91334 -0.000488194C8.59232 -0.000488194 8.28435 0.114183 8.05668 0.318481L0.328513 7.29475C0.224497 7.38484 0.141733 7.49298 0.0851939 7.61268C0.0286551 7.73238 -0.000489924 7.86116 -0.000489924 7.99128C-0.000489924 8.12141 0.0286551 8.25019 0.0851939 8.36988C0.141733 8.48958 0.224497 8.59772 0.328513 8.68781L8.04453 15.6751C8.15749 15.7779 8.29189 15.8595 8.43996 15.9152C8.58803 15.9708 8.74686 15.9995 8.90727 15.9995C9.06768 15.9995 9.2265 15.9708 9.37457 15.9152C9.52265 15.8595 9.65704 15.7779 9.77 15.6751Z" fill="black"/>
<path d="M40.9995 14.3795L39.3172 15.9995L30.9995 7.99951L39.3172 -0.00048852L40.9995 1.61951L34.3693 7.99951L40.9995 14.3795Z" fill="black"/>
<path d="M34.9995 14.3795L33.4854 15.9995L25.9995 7.99951L33.4854 -0.00048852L34.9995 1.61951L29.0323 7.99951L34.9995 14.3795Z" fill="black"/>
<path d="M29.9995 14.3795L28.3172 15.9995L19.9995 7.99951L28.3172 -0.00048852L29.9995 1.61951L23.3693 7.99951L29.9995 14.3795Z" fill="black"/>
</svg>
