<svg width="26" height="26" viewBox="0 0 26 26" fill="none" xmlns="http://www.w3.org/2000/svg">
<path d="M2.46084 13.3135C2.61348 13.3219 2.76318 13.3001 2.90132 13.2492C3.03946 13.1983 3.1633 13.1194 3.26569 13.017C3.36808 12.9146 3.447 12.7907 3.49789 12.6526C3.54879 12.5145 3.57065 12.3648 3.56222 12.2121L3.17768 4.69184L23.4037 24.9179C23.6316 25.1458 23.9319 25.2826 24.2385 25.2983C24.545 25.3139 24.8329 25.2072 25.0386 25.0015C25.2443 24.7958 25.351 24.508 25.3354 24.2014C25.3197 23.8948 25.1828 23.5945 24.955 23.3666L4.74611 3.15777L12.2259 3.5484C12.5313 3.56311 12.8177 3.45635 13.0226 3.25144C13.2275 3.04653 13.3343 2.76012 13.3196 2.45477C13.303 2.14932 13.1664 1.85047 12.9394 1.62348C12.7124 1.39648 12.4135 1.2598 12.1081 1.24327L1.71046 0.711599C1.57321 0.701749 1.43822 0.719695 1.3136 0.764355C1.18898 0.809015 1.07731 0.879468 0.985301 0.97148C0.893289 1.06349 0.822837 1.17516 0.778177 1.29978C0.733517 1.4244 0.715572 1.55939 0.725421 1.69664L1.24074 12.0934C1.24792 12.246 1.28525 12.3987 1.35058 12.5428C1.41591 12.6869 1.50794 12.8195 1.62136 12.9329C1.73479 13.0463 1.86737 13.1383 2.01145 13.2037C2.15553 13.269 2.30826 13.3063 2.46084 13.3135Z" fill="black"/>
</svg>
