<svg width="41" height="42" viewBox="0 0 41 42" fill="none" xmlns="http://www.w3.org/2000/svg">
<path d="M7.48452 18.8404C7.63716 18.8488 7.78686 18.8269 7.925 18.776C8.06314 18.7251 8.18698 18.6462 8.28937 18.5438C8.39176 18.4414 8.47068 18.3176 8.52157 18.1795C8.57247 18.0413 8.59433 17.8916 8.5859 17.739L8.20136 10.2187L28.4274 30.4447C28.6553 30.6726 28.9555 30.8094 29.2621 30.8251C29.5687 30.8408 29.8565 30.734 30.0622 30.5283C30.268 30.3226 30.3747 30.0348 30.359 29.7282C30.3434 29.4216 30.2065 29.1214 29.9787 28.8935L9.76979 8.68463L17.2496 9.07526C17.555 9.08996 17.8414 8.9832 18.0463 8.7783C18.2512 8.57339 18.358 8.28698 18.3433 7.98163C18.3267 7.67618 18.19 7.37732 17.963 7.15033C17.7361 6.92334 17.4372 6.78665 17.1318 6.77013L6.73414 6.23845C6.59689 6.2286 6.4619 6.24655 6.33728 6.29121C6.21266 6.33587 6.10099 6.40632 6.00898 6.49833C5.91697 6.59035 5.84652 6.70202 5.80186 6.82663C5.7572 6.95125 5.73925 7.08624 5.7491 7.2235L6.26443 17.6203C6.2716 17.7728 6.30893 17.9256 6.37426 18.0697C6.43959 18.2137 6.53162 18.3463 6.64505 18.4597C6.75847 18.5732 6.89105 18.6652 7.03513 18.7305C7.17921 18.7959 7.33195 18.8332 7.48452 18.8404Z" fill="black"/>
<path d="M30.4832 40.0068L28.1481 39.9628L27.9234 28.4244L39.4618 28.6491L39.5058 30.9841L30.3062 30.8072L30.4832 40.0068Z" fill="black"/>
</svg>
