<svg width="41" height="42" viewBox="0 0 41 42" fill="none" xmlns="http://www.w3.org/2000/svg">
<path d="M7.68838 19.0435C7.84338 19.0543 7.99497 19.0343 8.13439 18.9847C8.27381 18.9351 8.39831 18.8568 8.5007 18.7544C8.60309 18.652 8.68135 18.5275 8.73096 18.3881C8.78058 18.2487 8.80056 18.0971 8.78976 17.9421L8.28897 10.3056L29.1099 31.1265C29.3445 31.3611 29.6512 31.5043 29.9625 31.5247C30.2738 31.5452 30.5643 31.4411 30.77 31.2354C30.9757 31.0297 31.0798 30.7392 31.0594 30.4279C31.039 30.1165 30.8957 29.8098 30.6611 29.5752L9.85791 8.77201L17.4535 9.27838C17.7635 9.29779 18.0526 9.19368 18.2575 8.98877C18.4624 8.78386 18.5665 8.49481 18.5471 8.18475C18.5258 7.87457 18.3828 7.56931 18.1491 7.33564C17.9154 7.10197 17.6102 6.95888 17.3 6.93762L6.74164 6.24522C6.60223 6.23321 6.46552 6.24943 6.33972 6.29292C6.21393 6.3364 6.10165 6.40625 6.00964 6.49826C5.91763 6.59027 5.84778 6.70255 5.8043 6.82834C5.76081 6.95413 5.74459 7.09085 5.7566 7.23026L6.4324 17.7875C6.44193 17.9424 6.48205 18.098 6.55046 18.2451C6.61886 18.3923 6.7142 18.5282 6.83096 18.6449C6.94772 18.7617 7.0836 18.857 7.23076 18.9254C7.37792 18.9938 7.53345 19.034 7.68838 19.0435Z" fill="black"/>
<path d="M30.4839 40.0068L28.2678 40.0817L28.6313 29.1315L39.5815 28.768L39.5066 30.9841L30.7758 31.2761L30.4839 40.0068Z" fill="black"/>
<path d="M26.9482 36.4712L24.6132 36.4271L24.3885 24.8888L35.9269 25.1134L35.9709 27.4485L26.7713 27.2716L26.9482 36.4712Z" fill="black"/>
</svg>
