<svg width="41" height="42" viewBox="0 0 41 42" fill="none" xmlns="http://www.w3.org/2000/svg">
<path d="M7.48525 18.8404C7.63789 18.8488 7.78759 18.8269 7.92573 18.776C8.06387 18.7251 8.18771 18.6462 8.2901 18.5438C8.39249 18.4414 8.47141 18.3176 8.52231 18.1795C8.5732 18.0413 8.59507 17.8916 8.58664 17.739L8.20209 10.2187L28.4281 30.4447C28.656 30.6726 28.9563 30.8094 29.2629 30.8251C29.5695 30.8408 29.8573 30.734 30.063 30.5283C30.2687 30.3226 30.3754 30.0348 30.3598 29.7282C30.3441 29.4216 30.2073 29.1214 29.9794 28.8935L9.77053 8.68463L17.2504 9.07526C17.5557 9.08996 17.8421 8.9832 18.047 8.7783C18.2519 8.57339 18.3587 8.28698 18.344 7.98163C18.3275 7.67618 18.1908 7.37732 17.9638 7.15033C17.7368 6.92334 17.4379 6.78665 17.1325 6.77013L6.73488 6.23845C6.59762 6.2286 6.46263 6.24655 6.33802 6.29121C6.2134 6.33587 6.10173 6.40632 6.00972 6.49833C5.9177 6.59035 5.84725 6.70202 5.80259 6.82663C5.75793 6.95125 5.73999 7.08624 5.74983 7.2235L6.26516 17.6203C6.27234 17.7728 6.30967 17.9256 6.37499 18.0697C6.44032 18.2137 6.53235 18.3463 6.64578 18.4597C6.75921 18.5732 6.89178 18.6652 7.03586 18.7305C7.17994 18.7959 7.33268 18.8332 7.48525 18.8404Z" fill="black"/>
<path d="M30.4839 40.0068L28.1488 39.9628L27.9242 28.4244L39.4625 28.6491L39.5066 30.9841L30.307 30.8072L30.4839 40.0068Z" fill="black"/>
<path d="M26.2412 35.7642L24.0251 35.8391L24.3886 24.8889L35.3388 24.5254L35.2639 26.7415L26.5331 27.0334L26.2412 35.7642Z" fill="black"/>
<path d="M22.7058 32.2285L20.3707 32.1845L20.1461 20.6461L31.6845 20.8708L31.7285 23.2058L22.5289 23.0289L22.7058 32.2285Z" fill="black"/>
</svg>
