<svg width="16" height="34" viewBox="0 0 16 34" fill="none" xmlns="http://www.w3.org/2000/svg">
<path d="M0.324705 9.76854C0.426676 9.88243 0.547993 9.97283 0.681661 10.0345C0.815328 10.0962 0.958699 10.128 1.1035 10.128C1.24831 10.128 1.39168 10.0962 1.52534 10.0345C1.65901 9.97283 1.78033 9.88243 1.8823 9.76854L6.92803 4.17899L6.92803 32.7829C6.92803 33.1052 7.04359 33.4143 7.2493 33.6421C7.45501 33.87 7.73401 33.998 8.02493 33.998C8.31584 33.998 8.59484 33.87 8.80055 33.6421C9.00626 33.4143 9.12182 33.1052 9.12182 32.7829L9.12182 4.20329L14.1346 9.76854C14.3402 9.99486 14.6182 10.1219 14.908 10.1219C15.1977 10.1219 15.4758 9.99486 15.6813 9.76854C15.8856 9.54087 16.0002 9.2329 16.0002 8.91188C16.0002 8.59086 15.8856 8.28289 15.6813 8.05522L8.705 0.327053C8.61491 0.223036 8.50677 0.140272 8.38707 0.0837331C8.26738 0.0271943 8.1386 -0.00195071 8.00847 -0.00195071C7.87835 -0.00195071 7.74957 0.0271943 7.62987 0.0837331C7.51017 0.140272 7.40203 0.223036 7.31194 0.327053L0.324705 8.04307C0.221894 8.15603 0.140291 8.29043 0.0846034 8.4385C0.0289154 8.58657 0.000244141 8.7454 0.000244141 8.90581C0.000244141 9.06622 0.0289154 9.22504 0.0846034 9.37311C0.140291 9.52118 0.221894 9.65558 0.324705 9.76854Z" fill="black"/>
</svg>
