<svg width="17" height="42" viewBox="0 0 17 42" fill="none" xmlns="http://www.w3.org/2000/svg">
<path d="M0.82324 10.2705C0.925211 10.3844 1.04653 10.4748 1.1802 10.5365C1.31386 10.5982 1.45723 10.6299 1.60204 10.6299C1.74684 10.6299 1.89021 10.5982 2.02388 10.5365C2.15755 10.4748 2.27886 10.3844 2.38083 10.2705L7.42656 4.68094L7.42656 33.2849C7.42656 33.6071 7.54213 33.9162 7.74784 34.1441C7.95355 34.372 8.23255 34.5 8.52346 34.5C8.81438 34.5 9.09338 34.372 9.29908 34.1441C9.50479 33.9162 9.62036 33.6071 9.62036 33.2849L9.62036 4.70524L14.6332 10.2705C14.8387 10.4968 15.1167 10.6238 15.4065 10.6238C15.6963 10.6238 15.9743 10.4968 16.1798 10.2705C16.3841 10.0428 16.4988 9.73485 16.4988 9.41383C16.4988 9.09282 16.3841 8.78484 16.1798 8.55717L9.20354 0.829006C9.11345 0.724989 9.00531 0.642225 8.88561 0.585686C8.76591 0.529147 8.63713 0.500002 8.50701 0.500002C8.37688 0.500002 8.2481 0.529147 8.12841 0.585686C8.00871 0.642225 7.90057 0.724989 7.81048 0.829006L0.82324 8.54502C0.720429 8.65798 0.638827 8.79238 0.583139 8.94045C0.527451 9.08853 0.498779 9.24735 0.498779 9.40776C0.498779 9.56817 0.527451 9.72699 0.583139 9.87506C0.638827 10.0231 0.720429 10.1575 0.82324 10.2705Z" fill="black"/>
<path d="M2.11878 41.5L0.498779 39.8177L8.49878 31.5L16.4988 39.8177L14.8788 41.5L8.49878 34.8698L2.11878 41.5Z" fill="black"/>
</svg>
