<svg width="17" height="42" viewBox="0 0 17 42" fill="none" xmlns="http://www.w3.org/2000/svg">
<path d="M0.823972 10.5579C0.925943 10.6751 1.04726 10.7682 1.18093 10.8317C1.3146 10.8952 1.45797 10.9279 1.60277 10.9279C1.74757 10.9279 1.89094 10.8952 2.02461 10.8317C2.15828 10.7682 2.2796 10.6751 2.38157 10.5579L7.4273 4.80391L7.4273 34.2491C7.4273 34.5809 7.54286 34.8991 7.74857 35.1336C7.95428 35.3682 8.23328 35.5 8.52419 35.5C8.81511 35.5 9.09411 35.3682 9.29982 35.1336C9.50553 34.8991 9.62109 34.5809 9.62109 34.2491L9.62109 4.82893L14.6339 10.5579C14.8394 10.7908 15.1174 10.9216 15.4072 10.9216C15.697 10.9216 15.975 10.7908 16.1805 10.5579C16.3848 10.3235 16.4995 10.0065 16.4995 9.67601C16.4995 9.34555 16.3848 9.02851 16.1805 8.79415L9.20427 0.838683C9.11418 0.731607 9.00604 0.646409 8.88634 0.588207C8.76664 0.530005 8.63786 0.500003 8.50774 0.500003C8.37762 0.500003 8.24884 0.530005 8.12914 0.588207C8.00944 0.646409 7.9013 0.731607 7.81121 0.838683L0.823972 8.78164C0.721162 8.89792 0.639559 9.03627 0.583871 9.1887C0.528183 9.34113 0.499512 9.50462 0.499512 9.66975C0.499512 9.83488 0.528183 9.99837 0.583871 10.1508C0.639559 10.3032 0.721162 10.4416 0.823972 10.5579Z" fill="black"/>
<path d="M2.11951 41.5L0.499512 39.9859L8.49951 32.5L16.4995 39.9859L14.8795 41.5L8.49951 35.5328L2.11951 41.5Z" fill="black"/>
<path d="M2.11951 36.5L0.499512 34.8177L8.49951 26.5L16.4995 34.8177L14.8795 36.5L8.49951 29.8698L2.11951 36.5Z" fill="black"/>
</svg>
