<svg width="17" height="42" viewBox="0 0 17 42" fill="none" xmlns="http://www.w3.org/2000/svg">
<path d="M0.823972 10.2705C0.925943 10.3844 1.04726 10.4748 1.18093 10.5365C1.3146 10.5982 1.45797 10.6299 1.60277 10.6299C1.74757 10.6299 1.89094 10.5982 2.02461 10.5365C2.15828 10.4748 2.2796 10.3844 2.38157 10.2705L7.4273 4.68094L7.4273 33.2849C7.4273 33.6071 7.54286 33.9162 7.74857 34.1441C7.95428 34.372 8.23328 34.5 8.52419 34.5C8.81511 34.5 9.09411 34.372 9.29982 34.1441C9.50553 33.9162 9.62109 33.6071 9.62109 33.2849L9.62109 4.70524L14.6339 10.2705C14.8394 10.4968 15.1174 10.6238 15.4072 10.6238C15.697 10.6238 15.975 10.4968 16.1805 10.2705C16.3848 10.0428 16.4995 9.73485 16.4995 9.41383C16.4995 9.09282 16.3848 8.78484 16.1805 8.55717L9.20427 0.829006C9.11418 0.724989 9.00604 0.642225 8.88634 0.585686C8.76664 0.529147 8.63786 0.500002 8.50774 0.500002C8.37762 0.500002 8.24884 0.529147 8.12914 0.585686C8.00944 0.642225 7.9013 0.724989 7.81121 0.829006L0.823972 8.54502C0.721162 8.65798 0.639559 8.79238 0.583871 8.94045C0.528183 9.08853 0.499512 9.24735 0.499512 9.40776C0.499512 9.56817 0.528183 9.72699 0.583871 9.87506C0.639559 10.0231 0.721162 10.1575 0.823972 10.2705Z" fill="black"/>
<path d="M2.11951 41.5L0.499512 39.8177L8.49951 31.5L16.4995 39.8177L14.8795 41.5L8.49951 34.8698L2.11951 41.5Z" fill="black"/>
<path d="M2.11951 35.5L0.499512 33.9859L8.49951 26.5L16.4995 33.9859L14.8795 35.5L8.49951 29.5328L2.11951 35.5Z" fill="black"/>
<path d="M2.11951 30.5L0.499512 28.8177L8.49951 20.5L16.4995 28.8177L14.8795 30.5L8.49951 23.8698L2.11951 30.5Z" fill="black"/>
</svg>
