<svg width="26" height="26" viewBox="0 0 26 26" fill="none" xmlns="http://www.w3.org/2000/svg">
<path d="M12.6848 2.4584C12.6764 2.61103 12.6982 2.76074 12.7491 2.89888C12.8 3.03702 12.8789 3.16085 12.9813 3.26325C13.0837 3.36564 13.2076 3.44456 13.3457 3.49545C13.4838 3.54635 13.6335 3.56821 13.7862 3.55978L21.3065 3.17524L1.08041 23.4013C0.852534 23.6292 0.715705 23.9294 0.700028 24.236C0.68435 24.5426 0.791109 24.8304 0.996818 25.0361C1.20253 25.2418 1.49033 25.3486 1.79693 25.3329C2.10352 25.3172 2.40378 25.1804 2.63166 24.9525L22.8405 4.74367L22.4499 12.2235C22.4352 12.5289 22.5419 12.8153 22.7469 13.0202C22.9518 13.2251 23.2382 13.3318 23.5435 13.3171C23.849 13.3006 24.1478 13.1639 24.3748 12.9369C24.6018 12.7099 24.7385 12.4111 24.755 12.1056L25.2867 1.70802C25.2965 1.57077 25.2786 1.43578 25.2339 1.31116C25.1893 1.18654 25.1188 1.07487 25.0268 0.98286C24.9348 0.890848 24.8231 0.820395 24.6985 0.775735C24.5739 0.731076 24.4389 0.71313 24.3017 0.722979L13.9049 1.2383C13.7523 1.24548 13.5996 1.28281 13.4555 1.34814C13.3114 1.41346 13.1788 1.5055 13.0654 1.61892C12.952 1.73235 12.8599 1.86493 12.7946 2.00901C12.7293 2.15309 12.692 2.30582 12.6848 2.4584Z" fill="black"/>
</svg>
