<svg width="49" height="24" viewBox="0 0 49 24" fill="none" xmlns="http://www.w3.org/2000/svg">
<g filter="url(#filter0_d_169_635)">
<path d="M34.9421 0.324461C34.8249 0.426431 34.7318 0.547749 34.6683 0.681417C34.6048 0.815084 34.5721 0.958454 34.5721 1.10326C34.5721 1.24806 34.6048 1.39143 34.6683 1.5251C34.7318 1.65877 34.8249 1.78008 34.9421 1.88206L40.6961 6.92779H11.2509C10.9191 6.92779 10.6009 7.04335 10.3664 7.24906C10.1318 7.45477 10 7.73377 10 8.02468C10 8.3156 10.1318 8.5946 10.3664 8.80031C10.6009 9.00601 10.9191 9.12158 11.2509 9.12158H40.6711L34.9421 14.1344C34.7092 14.3399 34.5784 14.6179 34.5784 14.9077C34.5784 15.1975 34.7092 15.4755 34.9421 15.681C35.1765 15.8853 35.4935 16 35.824 16C36.1545 16 36.4715 15.8853 36.7059 15.681L44.6613 8.70476C44.7684 8.61467 44.8536 8.50653 44.9118 8.38683C44.97 8.26713 45 8.13835 45 8.00823C45 7.8781 44.97 7.74932 44.9118 7.62963C44.8536 7.50993 44.7684 7.40179 44.6613 7.3117L36.7184 0.324461C36.6021 0.22165 36.4637 0.140047 36.3113 0.0843593C36.1589 0.0286712 35.9954 0 35.8303 0C35.6651 0 35.5016 0.0286712 35.3492 0.0843593C35.1968 0.140047 35.0584 0.22165 34.9421 0.324461Z" fill="black"/>
<path d="M4 1.62L5.51406 0L13 8L5.51406 16L4 14.38L9.96719 8L4 1.62Z" fill="black"/>
<path d="M9 1.62L10.6823 0L19 8L10.6823 16L9 14.38L15.6302 8L9 1.62Z" fill="black"/>
</g>
<defs>
<filter id="filter0_d_169_635" x="0" y="0" width="49" height="24" filterUnits="userSpaceOnUse" color-interpolation-filters="sRGB">
<feFlood flood-opacity="0" result="BackgroundImageFix"/>
<feColorMatrix in="SourceAlpha" type="matrix" values="0 0 0 0 0 0 0 0 0 0 0 0 0 0 0 0 0 0 127 0" result="hardAlpha"/>
<feOffset dy="4"/>
<feGaussianBlur stdDeviation="2"/>
<feComposite in2="hardAlpha" operator="out"/>
<feColorMatrix type="matrix" values="0 0 0 0 0 0 0 0 0 0 0 0 0 0 0 0 0 0 0.25 0"/>
<feBlend mode="normal" in2="BackgroundImageFix" result="effect1_dropShadow_169_635"/>
<feBlend mode="normal" in="SourceGraphic" in2="effect1_dropShadow_169_635" result="shape"/>
</filter>
</defs>
</svg>
