<svg width="41" height="42" viewBox="0 0 41 42" fill="none" xmlns="http://www.w3.org/2000/svg">
<path d="M22.6582 7.98574C22.6497 8.13838 22.6716 8.28808 22.7225 8.42622C22.7734 8.56436 22.8523 8.6882 22.9547 8.79059C23.0571 8.89298 23.1809 8.9719 23.3191 9.0228C23.4572 9.07369 23.6069 9.09555 23.7596 9.08713L31.2798 8.70258L11.0538 28.9286C10.8259 29.1565 10.6891 29.4568 10.6734 29.7634C10.6577 30.07 10.7645 30.3578 10.9702 30.5635C11.1759 30.7692 11.4637 30.8759 11.7703 30.8603C12.0769 30.8446 12.3772 30.7078 12.6051 30.4799L32.8139 10.271L32.4233 17.7508C32.4086 18.0562 32.5153 18.3426 32.7202 18.5475C32.9251 18.7524 33.2116 18.8592 33.5169 18.8445C33.8224 18.8279 34.1212 18.6913 34.3482 18.4643C34.5752 18.2373 34.7119 17.9384 34.7284 17.633L35.2601 7.23537C35.2699 7.09811 35.252 6.96312 35.2073 6.8385C35.1627 6.71389 35.0922 6.60222 35.0002 6.5102C34.9082 6.41819 34.7965 6.34774 34.6719 6.30308C34.5473 6.25842 34.4123 6.24047 34.275 6.25032L23.8783 6.76565C23.7257 6.77282 23.573 6.81015 23.4289 6.87548C23.2848 6.94081 23.1522 7.03284 23.0388 7.14627C22.9254 7.25969 22.8333 7.39227 22.768 7.53635C22.7027 7.68043 22.6654 7.83317 22.6582 7.98574Z" fill="black"/>
<path d="M1.4917 30.9844L1.53575 28.6493L13.0741 28.4247L12.8495 39.963L10.5144 40.0071L10.6913 30.8075L1.4917 30.9844Z" fill="black"/>
</svg>
