<svg width="41" height="42" viewBox="0 0 41 42" fill="none" xmlns="http://www.w3.org/2000/svg">
<path d="M22.4558 8.18886C22.445 8.34387 22.465 8.49546 22.5146 8.63488C22.5642 8.7743 22.6425 8.8988 22.7448 9.00119C22.8472 9.10358 22.9717 9.18184 23.1112 9.23145C23.2506 9.28106 23.4022 9.30105 23.5572 9.29025L31.1937 8.78946L10.3728 29.6104C10.1382 29.845 9.99494 30.1517 9.97452 30.463C9.9541 30.7743 10.0582 31.0648 10.2639 31.2705C10.4696 31.4762 10.7601 31.5803 11.0714 31.5599C11.3827 31.5395 11.6894 31.3962 11.924 31.1616L32.7273 10.3584L32.2209 17.954C32.2015 18.264 32.3056 18.5531 32.5105 18.758C32.7154 18.9629 33.0045 19.067 33.3145 19.0476C33.6247 19.0263 33.93 18.8832 34.1636 18.6496C34.3973 18.4159 34.5404 18.1106 34.5616 17.8005L35.254 7.24213C35.2661 7.10272 35.2498 6.966 35.2064 6.84021C35.1629 6.71442 35.093 6.60214 35.001 6.51013C34.909 6.41812 34.7967 6.34827 34.6709 6.30479C34.5451 6.2613 34.4084 6.24508 34.269 6.25709L23.7118 6.93289C23.5568 6.94241 23.4013 6.98254 23.2541 7.05094C23.107 7.11935 22.9711 7.21468 22.8543 7.33145C22.7376 7.44821 22.6422 7.58409 22.5738 7.73125C22.5054 7.87841 22.4653 8.03394 22.4558 8.18886Z" fill="black"/>
<path d="M1.49244 30.9844L1.41753 28.7683L12.3677 29.1318L12.7312 40.082L10.5151 40.0071L10.2232 31.2763L1.49244 30.9844Z" fill="black"/>
<path d="M5.02808 27.4487L5.07213 25.1137L16.6105 24.889L16.3858 36.4274L14.0508 36.4714L14.2277 27.2718L5.02808 27.4487Z" fill="black"/>
</svg>
