<svg width="41" height="42" viewBox="0 0 41 42" fill="none" xmlns="http://www.w3.org/2000/svg">
<path d="M22.6589 7.98574C22.6505 8.13838 22.6723 8.28808 22.7232 8.42622C22.7741 8.56436 22.8531 8.6882 22.9554 8.79059C23.0578 8.89298 23.1817 8.9719 23.3198 9.0228C23.458 9.07369 23.6077 9.09555 23.7603 9.08713L31.2806 8.70258L11.0545 28.9286C10.8267 29.1565 10.6898 29.4568 10.6741 29.7634C10.6585 30.07 10.7652 30.3578 10.9709 30.5635C11.1766 30.7692 11.4645 30.8759 11.771 30.8603C12.0776 30.8446 12.3779 30.7078 12.6058 30.4799L32.8146 10.271L32.424 17.7508C32.4093 18.0562 32.5161 18.3426 32.721 18.5475C32.9259 18.7524 33.2123 18.8592 33.5176 18.8445C33.8231 18.8279 34.1219 18.6913 34.3489 18.4643C34.5759 18.2373 34.7126 17.9384 34.7291 17.633L35.2608 7.23537C35.2707 7.09811 35.2527 6.96312 35.2081 6.8385C35.1634 6.71389 35.0929 6.60222 35.0009 6.5102C34.9089 6.41819 34.7973 6.34774 34.6726 6.30308C34.548 6.25842 34.413 6.24047 34.2758 6.25032L23.879 6.76565C23.7264 6.77282 23.5737 6.81015 23.4296 6.87548C23.2855 6.94081 23.153 7.03284 23.0395 7.14627C22.9261 7.25969 22.8341 7.39227 22.7687 7.53635C22.7034 7.68043 22.6661 7.83317 22.6589 7.98574Z" fill="black"/>
<path d="M1.49244 30.9844L1.53648 28.6493L13.0748 28.4247L12.8502 39.963L10.5151 40.0071L10.692 30.8075L1.49244 30.9844Z" fill="black"/>
<path d="M5.73511 26.7417L5.6602 24.5256L16.6104 24.8891L16.9739 35.8393L14.7578 35.7644L14.4659 27.0336L5.73511 26.7417Z" fill="black"/>
<path d="M9.27051 23.2061L9.31456 20.871L20.8529 20.6463L20.6283 32.1847L18.2932 32.2287L18.4701 23.0291L9.27051 23.2061Z" fill="black"/>
</svg>
