<svg width="41" height="16" viewBox="0 0 41 16" fill="none" xmlns="http://www.w3.org/2000/svg">
<path d="M31.2295 0.324461C31.1156 0.426431 31.0252 0.547749 30.9635 0.681417C30.9018 0.815084 30.8701 0.958454 30.8701 1.10326C30.8701 1.24806 30.9018 1.39143 30.9635 1.5251C31.0252 1.65877 31.1156 1.78008 31.2295 1.88206L36.8191 6.92779H8.21512C7.89285 6.92779 7.58378 7.04335 7.3559 7.24906C7.12802 7.45477 7 7.73377 7 8.02468C7 8.3156 7.12802 8.5946 7.3559 8.80031C7.58378 9.00601 7.89285 9.12158 8.21512 9.12158H36.7948L31.2295 14.1344C31.0032 14.3399 30.8762 14.6179 30.8762 14.9077C30.8762 15.1975 31.0032 15.4755 31.2295 15.681C31.4572 15.8853 31.7652 16 32.0862 16C32.4072 16 32.7152 15.8853 32.9428 15.681L40.671 8.70476C40.775 8.61467 40.8578 8.50653 40.9143 8.38683C40.9709 8.26713 41 8.13835 41 8.00823C41 7.8781 40.9709 7.74932 40.9143 7.62963C40.8578 7.50993 40.775 7.40179 40.671 7.3117L32.955 0.324461C32.842 0.22165 32.7076 0.140047 32.5596 0.0843593C32.4115 0.0286712 32.2527 0 32.0922 0C31.9318 0 31.773 0.0286712 31.6249 0.0843593C31.4769 0.140047 31.3425 0.22165 31.2295 0.324461Z" fill="black"/>
<path d="M0 1.62L1.68229 0L10 8L1.68229 16L0 14.38L6.63021 8L0 1.62Z" fill="black"/>
<path d="M6 1.62L7.51406 0L15 8L7.51406 16L6 14.38L11.9672 8L6 1.62Z" fill="black"/>
<path d="M11 1.62L12.6823 0L21 8L12.6823 16L11 14.38L17.6302 8L11 1.62Z" fill="black"/>
</svg>
