<svg width="26" height="26" viewBox="0 0 26 26" fill="none" xmlns="http://www.w3.org/2000/svg">
<path d="M23.5394 12.6841C23.3868 12.6756 23.2371 12.6975 23.0989 12.7484C22.9608 12.7993 22.8369 12.8782 22.7346 12.9806C22.6322 13.083 22.5532 13.2068 22.5024 13.345C22.4515 13.4831 22.4296 13.6328 22.438 13.7854L22.8226 21.3057L2.59652 1.07968C2.36864 0.851802 2.06838 0.714973 1.76179 0.699295C1.45519 0.683618 1.16739 0.790377 0.961679 0.996085C0.75597 1.20179 0.649213 1.4896 0.66489 1.79619C0.680568 2.10279 0.817395 2.40305 1.04527 2.63093L21.2541 22.8398L13.7743 22.4492C13.4689 22.4345 13.1825 22.5412 12.9776 22.7461C12.7727 22.951 12.666 23.2374 12.6807 23.5428C12.6972 23.8482 12.8339 24.1471 13.0609 24.3741C13.2879 24.6011 13.5867 24.7378 13.8922 24.7543L24.2898 25.286C24.427 25.2958 24.562 25.2779 24.6866 25.2332C24.8113 25.1885 24.9229 25.1181 25.0149 25.0261C25.107 24.9341 25.1774 24.8224 25.2221 24.6978C25.2667 24.5732 25.2847 24.4382 25.2748 24.3009L24.7595 13.9041C24.7523 13.7516 24.715 13.5988 24.6497 13.4548C24.5843 13.3107 24.4923 13.1781 24.3789 13.0647C24.2655 12.9512 24.1329 12.8592 23.9888 12.7939C23.8447 12.7286 23.692 12.6912 23.5394 12.6841Z" fill="black"/>
</svg>
