<svg width="41" height="42" viewBox="0 0 41 42" fill="none" xmlns="http://www.w3.org/2000/svg">
<path d="M33.5143 23.1592C33.3616 23.1507 33.2119 23.1726 33.0738 23.2235C32.9356 23.2744 32.8118 23.3533 32.7094 23.4557C32.607 23.5581 32.5281 23.6819 32.4772 23.8201C32.4263 23.9582 32.4044 24.1079 32.4129 24.2605L32.7974 31.7808L12.5714 11.5548C12.3435 11.3269 12.0432 11.1901 11.7366 11.1744C11.43 11.1587 11.1422 11.2655 10.9365 11.4712C10.7308 11.6769 10.6241 11.9647 10.6397 12.2713C10.6554 12.5779 10.7922 12.8781 11.0201 13.106L31.229 33.3149L23.7492 32.9243C23.4438 32.9095 23.1574 33.0163 22.9525 33.2212C22.7476 33.4261 22.6408 33.7125 22.6555 34.0179C22.6721 34.3233 22.8087 34.6222 23.0357 34.8492C23.2627 35.0762 23.5616 35.2129 23.867 35.2294L34.2646 35.7611C34.4019 35.7709 34.5369 35.753 34.6615 35.7083C34.7861 35.6636 34.8978 35.5932 34.9898 35.5012C35.0818 35.4092 35.1523 35.2975 35.1969 35.1729C35.2416 35.0483 35.2595 34.9133 35.2497 34.776L34.7344 24.3792C34.7272 24.2267 34.6898 24.0739 34.6245 23.9299C34.5592 23.7858 34.4672 23.6532 34.3537 23.5398C34.2403 23.4263 34.1077 23.3343 33.9636 23.269C33.8196 23.2037 33.6668 23.1663 33.5143 23.1592Z" fill="black"/>
<path d="M10.5156 1.99268L12.8507 2.03673L13.0753 13.5751L1.53699 13.3504L1.49294 11.0154L10.6925 11.1923L10.5156 1.99268Z" fill="black"/>
</svg>
