<svg width="41" height="42" viewBox="0 0 41 42" fill="none" xmlns="http://www.w3.org/2000/svg">
<path d="M33.3111 22.956C33.1561 22.9452 33.0045 22.9652 32.8651 23.0148C32.7257 23.0644 32.6012 23.1427 32.4988 23.2451C32.3964 23.3475 32.3182 23.472 32.2685 23.6114C32.2189 23.7508 32.199 23.9024 32.2098 24.0574L32.7105 31.6939L11.8896 10.873C11.655 10.6384 11.3483 10.4952 11.037 10.4748C10.7257 10.4543 10.4352 10.5584 10.2295 10.7642C10.0238 10.9699 9.9197 11.2603 9.94011 11.5717C9.96053 11.883 10.1038 12.1897 10.3384 12.4243L31.1416 33.2275L23.546 32.7211C23.236 32.7017 22.9469 32.8058 22.742 33.0107C22.5371 33.2157 22.433 33.5047 22.4524 33.8148C22.4737 34.1249 22.6168 34.4302 22.8504 34.6639C23.0841 34.8975 23.3894 35.0406 23.6995 35.0619L34.2579 35.7543C34.3973 35.7663 34.534 35.7501 34.6598 35.7066C34.7856 35.6631 34.8979 35.5933 34.9899 35.5013C35.0819 35.4092 35.1517 35.297 35.1952 35.1712C35.2387 35.0454 35.2549 34.9087 35.2429 34.7692L34.5671 24.212C34.5576 24.0571 34.5175 23.9016 34.4491 23.7544C34.3806 23.6072 34.2853 23.4714 34.1686 23.3546C34.0518 23.2378 33.9159 23.1425 33.7687 23.0741C33.6216 23.0057 33.4661 22.9656 33.3111 22.956Z" fill="black"/>
<path d="M10.5156 1.99268L12.7317 1.91777L12.3682 12.868L1.41803 13.2315L1.49294 11.0154L10.2237 10.7235L10.5156 1.99268Z" fill="black"/>
<path d="M14.0513 5.52833L16.3863 5.57237L16.611 17.1107L5.07263 16.8861L5.02858 14.551L14.2282 14.7279L14.0513 5.52833Z" fill="black"/>
</svg>
