<svg width="44" height="44" viewBox="0 0 44 44" fill="none" xmlns="http://www.w3.org/2000/svg">
<g filter="url(#filter0_d_169_649)">
<path d="M36.5143 23.1592C36.3616 23.1507 36.2119 23.1726 36.0738 23.2235C35.9356 23.2744 35.8118 23.3533 35.7094 23.4557C35.607 23.5581 35.5281 23.6819 35.4772 23.8201C35.4263 23.9582 35.4044 24.1079 35.4129 24.2605L35.7974 31.7808L15.5714 11.5548C15.3435 11.3269 15.0432 11.1901 14.7366 11.1744C14.43 11.1587 14.1422 11.2655 13.9365 11.4712C13.7308 11.6769 13.6241 11.9647 13.6397 12.2713C13.6554 12.5779 13.7922 12.8781 14.0201 13.106L34.229 33.3149L26.7492 32.9243C26.4438 32.9095 26.1574 33.0163 25.9525 33.2212C25.7476 33.4261 25.6408 33.7125 25.6555 34.0179C25.6721 34.3233 25.8087 34.6222 26.0357 34.8492C26.2627 35.0762 26.5616 35.2129 26.867 35.2294L37.2646 35.7611C37.4019 35.7709 37.5369 35.753 37.6615 35.7083C37.7861 35.6636 37.8978 35.5932 37.9898 35.5012C38.0818 35.4092 38.1523 35.2975 38.1969 35.1729C38.2416 35.0483 38.2595 34.9133 38.2497 34.776L37.7344 24.3792C37.7272 24.2267 37.6898 24.0739 37.6245 23.9299C37.5592 23.7858 37.4672 23.6532 37.3537 23.5398C37.2403 23.4263 37.1077 23.3343 36.9636 23.269C36.8196 23.2037 36.6668 23.1663 36.5143 23.1592Z" fill="black"/>
<path d="M13.5156 1.99268L15.8507 2.03673L16.0753 13.5751L4.53699 13.3504L4.49294 11.0154L13.6925 11.1923L13.5156 1.99268Z" fill="black"/>
<path d="M17.7583 6.23536L19.9744 6.16045L19.6109 17.1107L8.6607 17.4742L8.73561 15.258L17.4664 14.9661L17.7583 6.23536Z" fill="black"/>
<path d="M21.2937 9.771L23.6288 9.81505L23.8534 21.3534L12.3151 21.1288L12.271 18.7937L21.4706 18.9706L21.2937 9.771Z" fill="black"/>
</g>
<defs>
<filter id="filter0_d_169_649" x="0.49292" y="1.99268" width="41.7593" height="41.771" filterUnits="userSpaceOnUse" color-interpolation-filters="sRGB">
<feFlood flood-opacity="0" result="BackgroundImageFix"/>
<feColorMatrix in="SourceAlpha" type="matrix" values="0 0 0 0 0 0 0 0 0 0 0 0 0 0 0 0 0 0 127 0" result="hardAlpha"/>
<feOffset dy="4"/>
<feGaussianBlur stdDeviation="2"/>
<feComposite in2="hardAlpha" operator="out"/>
<feColorMatrix type="matrix" values="0 0 0 0 0 0 0 0 0 0 0 0 0 0 0 0 0 0 0.25 0"/>
<feBlend mode="normal" in2="BackgroundImageFix" result="effect1_dropShadow_169_649"/>
<feBlend mode="normal" in="SourceGraphic" in2="effect1_dropShadow_169_649" result="shape"/>
</filter>
</defs>
</svg>
