<svg width="16" height="34" viewBox="0 0 16 34" fill="none" xmlns="http://www.w3.org/2000/svg">
<path d="M15.6755 24.229C15.5736 24.1151 15.4523 24.0247 15.3186 23.963C15.1849 23.9013 15.0415 23.8696 14.8967 23.8696C14.7519 23.8696 14.6086 23.9013 14.4749 23.963C14.3412 24.0247 14.2199 24.1151 14.1179 24.229L9.07221 29.8186L9.07221 1.21463C9.07221 0.892362 8.95665 0.583292 8.75094 0.355412C8.54523 0.127533 8.26623 -0.000488281 7.97532 -0.000488281C7.6844 -0.000488281 7.4054 0.127533 7.19969 0.355412C6.99399 0.583292 6.87842 0.892362 6.87842 1.21463L6.87842 29.7943L1.8656 24.229C1.66008 24.0027 1.38207 23.8757 1.09228 23.8757C0.8025 23.8757 0.524489 24.0027 0.318972 24.229C0.114673 24.4567 1.99487e-06 24.7647 1.99487e-06 25.0857C1.99487e-06 25.4067 0.114673 25.7147 0.318972 25.9423L7.29524 33.6705C7.38533 33.7745 7.49347 33.8573 7.61317 33.9138C7.73287 33.9704 7.86165 33.9995 7.99177 33.9995C8.1219 33.9995 8.25068 33.9704 8.37037 33.9138C8.49007 33.8573 8.59821 33.7745 8.6883 33.6705L15.6755 25.9545C15.7784 25.8415 15.86 25.7071 15.9156 25.5591C15.9713 25.411 16 25.2522 16 25.0918C16 24.9313 15.9713 24.7725 15.9156 24.6244C15.86 24.4764 15.7784 24.342 15.6755 24.229Z" fill="black"/>
</svg>
